# xmcd
#
# Track frame offsets:
#	150
#	15851
#	33625
#	45265
#	54686
#	69856
#	83294
#	97132
#	105215
#	113143
#	127748
#	143512
#	158779
#	173161
#	186176
#	195505
#	212348
#	223634
#	237030
#	247195
#
# Disc length: 3491 seconds
#
# Revision: 1
# Processed by: cddbd v1.4PL0 Copyright (c) Steve Scherf et al.
# Submitted via: EasyCDDAExtractor 5.1.0
#
DISCID=f50da114
DTITLE=Victor Hugo - Chansons diverses
DYEAR=1485
DGENRE=AlternRock
TTITLE0=Je ne songeais pas à Rose
TTITLE1=Beaux jours
TTITLE2=Nouvelle chanson
TTITLE3=Chanson du proscrit
TTITLE4=Océan
TTITLE5=Demain dès l'aube
TTITLE6=Jeanne
TTITLE7=Les hirondelles
TTITLE8=Danse en rond
TTITLE9=La légende de la nonne
TTITLE10=Gastilbeza
TTITLE11=Jean qui guette
TTITLE12=Chanson du condamné
TTITLE13=L'ogre
TTITLE14=Une chanson de Gavroche
TTITLE15=Depuis 6000 ans de guerre
TTITLE16=Au fil de l'eau
TTITLE17=Minuit
TTITLE18=Le chanson du spectre
TTITLE19=Chanson
EXTD=
EXTT0=
EXTT1=
EXTT2=
EXTT3=
EXTT4=
EXTT5=
EXTT6=
EXTT7=
EXTT8=
EXTT9=
EXTT10=
EXTT11=
EXTT12=
EXTT13=
EXTT14=
EXTT15=
EXTT16=
EXTT17=
EXTT18=
EXTT19=
PLAYORDER=
